<svg width="512" height="512" xmlns="http://www.w3.org/2000/svg">

 <g>
  <title>background</title>
  <rect fill="none" id="canvas_background" height="402" width="582" y="-1" x="-1"/>
 </g>
 <g>
  <title>Layer 1</title>
  <path fill="white" id="svg_1" d="m256.469,493.669c-0.001,0 -0.001,0 -0.003,0c-2.819,-0.001 -5.378,-1.646 -6.549,-4.211c-6.297,-13.799 -18.184,-37.661 -31.949,-65.292c-57.873,-116.173 -109.82,-223.214 -109.82,-256.577c0,-81.784 66.536,-148.32 148.32,-148.32c81.785,0 148.321,66.536 148.321,148.32c0,33.44 -52.084,140.744 -110.11,257.202c-13.629,27.353 -25.398,50.974 -31.662,64.672c-1.171,2.562 -3.73,4.206 -6.548,4.206zm0,-459.998c-73.842,0 -133.917,60.075 -133.917,133.918c0,32.737 67.799,168.838 108.309,250.154c9.978,20.029 18.974,38.088 25.613,51.858c6.579,-13.63 15.462,-31.461 25.314,-51.233c40.618,-81.52 108.601,-217.959 108.601,-250.779c-0.001,-73.843 -60.077,-133.918 -133.92,-133.918z"/>
  <path fill="white" id="svg_2" d="m256.469,251.67c-46.363,0 -84.082,-37.719 -84.082,-84.081c0,-46.392 37.719,-84.133 84.082,-84.133c46.391,0 84.133,37.741 84.133,84.133c0,46.362 -37.743,84.081 -84.133,84.081zm0,-153.812c-38.421,0 -69.679,31.281 -69.679,69.73c0,38.421 31.258,69.679 69.679,69.679c38.449,0 69.73,-31.258 69.73,-69.679c0,-38.448 -31.281,-69.73 -69.73,-69.73z"/>
 </g>
</svg>