<svg xmlns="http://www.w3.org/2000/svg" viewBox="0 0 64 64"><g data-name="Layer 16"><path d="M29.17 36H24a1 1 0 0 1-1-1v-1.76A11.07 11.07 0 0 0 29.24 27H30a4 4 0 0 0 0-8v-1h3a1 1 0 0 0 1-1v-4a1 1 0 0 0-1-1h-1A12 12 0 0 0 20 1h-2A12 12 0 0 0 6.05 12H5a1 1 0 0 0-1 1v4a1 1 0 0 0 1 1h3v1a4 4 0 0 0 0 8h.76A11.07 11.07 0 0 0 15 33.24V35a1 1 0 0 1-1 1H8.83A7.82 7.82 0 0 0 1 43.83V62a1 1 0 0 0 1 1h34a1 1 0 0 0 1-1V43.83A7.82 7.82 0 0 0 29.17 36zM32 23a2 2 0 0 1-2 2h-.19a11 11 0 0 0 .19-2v-2a2 2 0 0 1 2 2zM20 3v5h-2V3zm-4 .2V9a1 1 0 0 0 1 1h4a1 1 0 0 0 1-1V3.2a10 10 0 0 1 8 8.8H8.05A10 10 0 0 1 16 3.2zM6 14h26v2H6zm2 11a2 2 0 0 1 0-4v2a11 11 0 0 0 .19 2zm2-2v-5h18v5a9 9 0 0 1-18 0zm7 12v-1.19a10.62 10.62 0 0 0 4 0V35a3 3 0 0 0 2 2.82V38a4 4 0 0 1-8 0v-.18A3 3 0 0 0 17 35zm2 9a6 6 0 0 0 6-6h2v3.34a14.59 14.59 0 0 0 4 10.07V61H7v-9.59a14.59 14.59 0 0 0 4-10.07V38h2a6 6 0 0 0 6 6zm-16-.17A5.84 5.84 0 0 1 8.83 38H9v3.34a12.58 12.58 0 0 1-3.71 8.95A1 1 0 0 0 5 51v10H3zM35 61h-2V51a1 1 0 0 0-.29-.71A12.58 12.58 0 0 1 29 41.34V38h.17A5.84 5.84 0 0 1 35 43.83zm14-11.55v-17a7.44 7.44 0 0 0-.65-13.49 1 1 0 0 0-1.35.94v5.55l-1 1.05-1-1.05v-5.57a1 1 0 0 0-1.35-.94A7.44 7.44 0 0 0 43 32.43v17a7.44 7.44 0 0 0 .65 13.49A1 1 0 0 0 45 62v-5.55l1-1.05 1 1.05V62a1 1 0 0 0 1 1 1 1 0 0 0 .35-.06A7.44 7.44 0 0 0 49 49.45zm0 10.85v-4.25a1 1 0 0 0-.28-.69l-2-2.1a1 1 0 0 0-1.44 0l-2 2.1a1 1 0 0 0-.28.69v4.25a5.46 5.46 0 0 1-2-4.25 5.32 5.32 0 0 1 3.35-5 1 1 0 0 0 .65-.93V31.78a1 1 0 0 0-.65-.94 5.32 5.32 0 0 1-3.35-5 5.46 5.46 0 0 1 2-4.25v4.25a1 1 0 0 0 .28.69l2 2.1a1 1 0 0 0 1.44 0l2-2.1a1 1 0 0 0 .28-.69v-4.26a5.46 5.46 0 0 1 2 4.25 5.32 5.32 0 0 1-3.35 5 1 1 0 0 0-.65.94v18.34a1 1 0 0 0 .65.93 5.32 5.32 0 0 1 3.35 5 5.46 5.46 0 0 1-2 4.26z"/><path d="M62.71 10.71A1 1 0 0 0 63 10V2a1 1 0 0 0-1-1h-8a1 1 0 0 0-1 1v8a1 1 0 0 0 .29.71l1.71 1.7v21.18l-1.71 1.7A1 1 0 0 0 53 36v8a1 1 0 0 0 1 1h8a1 1 0 0 0 1-1v-8a1 1 0 0 0-.29-.71L61 33.59V12.41Zm-3.42 24 1.71 1.7V43h-6v-6.59l1.71-1.7A1 1 0 0 0 57 34V12a1 1 0 0 0-.29-.71L55 9.59V3h6v6.59l-1.71 1.7A1 1 0 0 0 59 12v22a1 1 0 0 0 .29.71Z"/></g></svg>